<?xml version="1.0" encoding="UTF-8"?>
<svg xmlns="http://www.w3.org/2000/svg" xmlns:xlink="http://www.w3.org/1999/xlink" xmlns:ub="http://www.mnemis.com/uniboard" xmlns:xhtml="http://www.w3.org/1999/xhtml" version="1.1" ub:version="4.1" viewBox="-724 -491 1448 982" ub:dark-background="false" ub:crossed-background="false">
    <rect fill="white" x="-724" y="-491" width="1448" height="982"/>
    <image xlink:href="images/{010df761-3196-49a4-8540-3043d5d53d66}.png" x="-585.75" y="-390.5" width="1281" height="854" transform="matrix(0.91452, 0, 0, 0.91452, -23, -17)" ub:z-value="-9999998.000000" ub:background="false" ub:uuid="{010df761-3196-49a4-8540-3043d5d53d66}"/>
    <polygon points="-670,-342 -668.443,-341.686 -667.172,-340.828 -666.314,-339.557 -666,-338 -666.314,-336.443 -667.172,-335.172 -668.443,-334.314 -670,-334 -671.557,-334.314 -672.828,-335.172 -673.686,-336.443 -674,-338 -673.686,-339.557 -672.828,-340.828 -671.557,-341.686 -670,-342 " fill="#004080" fill-opacity="1" ub:z-value="1" ub:fill-on-dark-background="#66c0ff" ub:fill-on-light-background="#004080"/>
    <polygon points="-669.03,-341.881 -665.03,-340.881 -665.029,-340.881 -662.862,-339.48 -662,-337 -662.314,-335.443 -663.172,-334.172 -664.443,-333.314 -666,-333 -666.971,-333.119 -666.97,-333.119 -670.97,-334.119 -670.971,-334.119 -673.138,-335.52 -674,-338 -673.686,-339.557 -672.828,-340.828 -671.557,-341.686 -670,-342 -669.029,-341.881 -669.03,-341.881 " fill="#004080" fill-opacity="1" ub:z-value="2" ub:fill-on-dark-background="#66c0ff" ub:fill-on-light-background="#004080"/>
    <polygon points="-663.439,-340.073 -657.439,-335.073 -657.439,-335.073 -656.39,-333.724 -656,-332 -656.314,-330.443 -657.172,-329.172 -658.443,-328.314 -660,-328 -662.561,-328.927 -662.561,-328.927 -668.561,-333.927 -668.561,-333.927 -669.61,-335.276 -670,-337 -669.686,-338.557 -668.828,-339.828 -667.557,-340.686 -666,-341 -663.439,-340.073 -663.439,-340.073 " fill="#004080" fill-opacity="1" ub:z-value="3" ub:fill-on-dark-background="#66c0ff" ub:fill-on-light-background="#004080"/>
    <polygon points="-658.211,-335.578 -654.211,-333.578 -654.21,-333.578 -652.614,-332.13 -652,-330 -652.314,-328.443 -653.172,-327.172 -654.443,-326.314 -656,-326 -657.79,-326.422 -657.789,-326.422 -661.789,-328.422 -661.79,-328.422 -663.386,-329.87 -664,-332 -663.686,-333.557 -662.828,-334.828 -661.557,-335.686 -660,-336 -658.21,-335.578 -658.211,-335.578 " fill="#004080" fill-opacity="1" ub:z-value="4" ub:fill-on-dark-background="#66c0ff" ub:fill-on-light-background="#004080"/>
    <polygon points="-653.6,-333.2 -649.6,-330.2 -649.6,-330.2 -648.436,-328.817 -648,-327 -648.314,-325.443 -649.172,-324.172 -650.443,-323.314 -652,-323 -654.4,-323.8 -654.4,-323.8 -658.4,-326.8 -658.4,-326.8 -659.564,-328.183 -660,-330 -659.686,-331.557 -658.828,-332.828 -657.557,-333.686 -656,-334 -653.6,-333.2 -653.6,-333.2 " fill="#004080" fill-opacity="1" ub:z-value="5" ub:fill-on-dark-background="#66c0ff" ub:fill-on-light-background="#004080"/>
    <polygon points="-649.343,-329.99 -640.343,-321.99 -640.343,-321.99 -639.362,-320.666 -639,-319 -639.314,-317.443 -640.172,-316.172 -641.443,-315.314 -643,-315 -644.446,-315.269 -645.657,-316.01 -645.657,-316.01 -654.657,-324.01 -654.657,-324.01 -655.638,-325.334 -656,-327 -655.686,-328.557 -654.828,-329.828 -653.557,-330.686 -652,-331 -650.554,-330.731 -649.343,-329.99 -649.343,-329.99 " fill="#004080" fill-opacity="1" ub:z-value="6" ub:fill-on-dark-background="#66c0ff" ub:fill-on-light-background="#004080"/>
    <polygon points="-640.439,-322.073 -634.439,-317.073 -634.439,-317.073 -633.39,-315.724 -633,-314 -633.314,-312.443 -634.172,-311.172 -635.443,-310.314 -637,-310 -639.561,-310.927 -639.561,-310.927 -645.561,-315.927 -645.561,-315.927 -646.61,-317.276 -647,-319 -646.686,-320.557 -645.828,-321.828 -644.557,-322.686 -643,-323 -640.439,-322.073 -640.439,-322.073 " fill="#004080" fill-opacity="1" ub:z-value="7" ub:fill-on-dark-background="#66c0ff" ub:fill-on-light-background="#004080"/>
    <polygon points="-633.723,-316.294 -626.723,-306.294 -626.723,-306.294 -626,-304 -626.314,-302.443 -627.172,-301.172 -628.443,-300.314 -630,-300 -631.876,-300.466 -633.277,-301.706 -633.277,-301.706 -640.277,-311.706 -640.277,-311.706 -641,-314 -640.686,-315.557 -639.828,-316.828 -638.557,-317.686 -637,-318 -635.124,-317.534 -633.723,-316.294 -633.723,-316.294 " fill="#004080" fill-opacity="1" ub:z-value="8" ub:fill-on-dark-background="#66c0ff" ub:fill-on-light-background="#004080"/>
    <polygon points="-627.01,-306.657 -619.01,-297.657 -619.01,-297.657 -618.269,-296.446 -618,-295 -618.314,-293.443 -619.172,-292.172 -620.443,-291.314 -622,-291 -623.666,-291.362 -624.99,-292.343 -624.99,-292.343 -632.99,-301.343 -632.99,-301.343 -633.731,-302.554 -634,-304 -633.686,-305.557 -632.828,-306.828 -631.557,-307.686 -630,-308 -628.334,-307.638 -627.01,-306.657 -627.01,-306.657 " fill="#004080" fill-opacity="1" ub:z-value="9" ub:fill-on-dark-background="#66c0ff" ub:fill-on-light-background="#004080"/>
    <polygon points="-619.172,-297.828 -609.172,-287.828 -608.314,-286.557 -608,-285 -608.314,-283.443 -609.172,-282.172 -610.443,-281.314 -612,-281 -613.557,-281.314 -614.828,-282.172 -624.828,-292.172 -625.686,-293.443 -626,-295 -625.686,-296.557 -624.828,-297.828 -623.557,-298.686 -622,-299 -620.443,-298.686 -619.172,-297.828 " fill="#004080" fill-opacity="1" ub:z-value="10" ub:fill-on-dark-background="#66c0ff" ub:fill-on-light-background="#004080"/>
    <polygon points="-609.481,-288.107 -572.481,-258.107 -572.481,-258.107 -571.402,-256.749 -571,-255 -571.314,-253.443 -572.172,-252.172 -573.443,-251.314 -575,-251 -577.519,-251.893 -577.519,-251.893 -614.519,-281.893 -614.519,-281.893 -615.598,-283.251 -616,-285 -615.686,-286.557 -614.828,-287.828 -613.557,-288.686 -612,-289 -609.481,-288.107 -609.481,-288.107 " fill="#004080" fill-opacity="1" ub:z-value="11" ub:fill-on-dark-background="#66c0ff" ub:fill-on-light-background="#004080"/>
    <polygon points="-572.254,-257.908 -554.254,-240.908 -554.253,-240.908 -553.337,-239.61 -553,-238 -553.314,-236.443 -554.172,-235.172 -555.443,-234.314 -557,-234 -558.503,-234.292 -559.747,-235.092 -559.746,-235.092 -577.746,-252.092 -577.747,-252.092 -578.663,-253.39 -579,-255 -578.686,-256.557 -577.828,-257.828 -576.557,-258.686 -575,-259 -573.497,-258.708 -572.253,-257.908 -572.254,-257.908 " fill="#004080" fill-opacity="1" ub:z-value="12" ub:fill-on-dark-background="#66c0ff" ub:fill-on-light-background="#004080"/>
    <polygon points="-554.38,-241.023 -539.38,-228.023 -539.38,-228.023 -538.373,-226.689 -538,-225 -538.314,-223.443 -539.172,-222.172 -540.443,-221.314 -542,-221 -543.422,-221.26 -544.62,-221.977 -544.62,-221.977 -559.62,-234.977 -559.62,-234.977 -560.627,-236.311 -561,-238 -560.686,-239.557 -559.828,-240.828 -558.557,-241.686 -557,-242 -555.578,-241.74 -554.38,-241.023 -554.38,-241.023 " fill="#004080" fill-opacity="1" ub:z-value="13" ub:fill-on-dark-background="#66c0ff" ub:fill-on-light-background="#004080"/>
    <polygon points="-539.249,-227.904 -501.249,-191.904 -501.249,-191.904 -500.336,-190.607 -500,-189 -500.314,-187.443 -501.172,-186.172 -502.443,-185.314 -504,-185 -505.506,-185.293 -506.751,-186.096 -506.751,-186.096 -544.751,-222.096 -544.751,-222.096 -545.664,-223.393 -546,-225 -545.686,-226.557 -544.828,-227.828 -543.557,-228.686 -542,-229 -540.494,-228.707 -539.249,-227.904 -539.249,-227.904 " fill="#004080" fill-opacity="1" ub:z-value="14" ub:fill-on-dark-background="#66c0ff" ub:fill-on-light-background="#004080"/>
    <polygon points="-501.767,-192.319 -446.767,-155.319 -446.767,-155.319 -445.484,-153.908 -445,-152 -445.314,-150.443 -446.172,-149.172 -447.443,-148.314 -449,-148 -451.233,-148.681 -451.233,-148.681 -506.233,-185.681 -506.233,-185.681 -507.516,-187.092 -508,-189 -507.686,-190.557 -506.828,-191.828 -505.557,-192.686 -504,-193 -501.767,-192.319 -501.767,-192.319 " fill="#004080" fill-opacity="1" ub:z-value="15" ub:fill-on-dark-background="#66c0ff" ub:fill-on-light-background="#004080"/>
    <polygon points="-447.174,-155.559 -371.174,-116.559 -371.173,-116.559 -369.603,-115.112 -369,-113 -369.314,-111.443 -370.172,-110.172 -371.443,-109.314 -373,-109 -374.827,-109.441 -374.826,-109.441 -450.826,-148.441 -450.827,-148.441 -452.397,-149.888 -453,-152 -452.686,-153.557 -451.828,-154.828 -450.557,-155.686 -449,-156 -447.173,-155.559 -447.174,-155.559 " fill="#004080" fill-opacity="1" ub:z-value="16" ub:fill-on-dark-background="#66c0ff" ub:fill-on-light-background="#004080"/>
    <polygon points="-371.567,-116.734 -272.567,-78.7344 -272.566,-78.7352 -270.72,-77.29 -270,-75 -270.314,-73.443 -271.172,-72.1716 -272.443,-71.3143 -274,-71 -275.434,-71.2648 -275.433,-71.2656 -374.433,-109.266 -374.434,-109.265 -376.28,-110.71 -377,-113 -376.686,-114.557 -375.828,-115.828 -374.557,-116.686 -373,-117 -371.566,-116.735 -371.567,-116.734 " fill="#004080" fill-opacity="1" ub:z-value="17" ub:fill-on-dark-background="#66c0ff" ub:fill-on-light-background="#004080"/>
    <polygon points="-273.615,-78.9814 -242.615,-75.9814 -242.614,-75.9817 -241.194,-75.5697 -240.046,-74.6973 -239.279,-73.4717 -239,-72 -239.314,-70.443 -240.172,-69.1716 -241.443,-68.3143 -243,-68 -243.386,-68.0183 -243.385,-68.0186 -274.385,-71.0186 -274.386,-71.0183 -275.806,-71.4303 -276.954,-72.3027 -277.721,-73.5283 -278,-75 -277.686,-76.557 -276.828,-77.8284 -275.557,-78.6857 -274,-79 -273.614,-78.9817 -273.615,-78.9814 " fill="#004080" fill-opacity="1" ub:z-value="18" ub:fill-on-dark-background="#66c0ff" ub:fill-on-light-background="#004080"/>
    <polygon points="-242.758,-75.9927 -209.758,-73.9927 -209.758,-73.9928 -208.286,-73.6151 -207.093,-72.7471 -206.292,-71.5038 -206,-70 -206.314,-68.443 -207.172,-67.1716 -208.443,-66.3143 -210,-66 -210.242,-66.0072 -210.242,-66.0073 -243.242,-68.0073 -243.242,-68.0072 -244.714,-68.3849 -245.907,-69.2529 -246.708,-70.4962 -247,-72 -246.686,-73.557 -245.828,-74.8284 -244.557,-75.6857 -243,-76 -242.758,-75.9928 -242.758,-75.9927 " fill="#004080" fill-opacity="1" ub:z-value="19" ub:fill-on-dark-background="#66c0ff" ub:fill-on-light-background="#004080"/>
    <polygon points="-209.838,-73.9967 -135.838,-70.9967 -135.838,-70.9968 -134.338,-70.6392 -133.119,-69.7743 -132.3,-68.5215 -132,-67 -132.314,-65.443 -133.172,-64.1716 -134.443,-63.3143 -136,-63 -136.162,-63.0032 -136.162,-63.0033 -210.162,-66.0033 -210.162,-66.0032 -211.662,-66.3608 -212.881,-67.2257 -213.7,-68.4785 -214,-70 -213.686,-71.557 -212.828,-72.8284 -211.557,-73.6857 -210,-74 -209.838,-73.9968 -209.838,-73.9967 " fill="#004080" fill-opacity="1" ub:z-value="20" ub:fill-on-dark-background="#66c0ff" ub:fill-on-light-background="#004080"/>
    <polygon points="-136.295,-70.9891 -55.2955,-76.9891 -55.2967,-76.9892 -55,-77 -53.443,-76.6857 -52.1716,-75.8284 -51.3143,-74.557 -51,-73 -51.2875,-71.5079 -52.0754,-70.271 -53.2513,-69.4013 -54.7033,-69.0108 -54.7045,-69.0109 -135.705,-63.0109 -135.703,-63.0108 -136,-63 -137.557,-63.3143 -138.828,-64.1716 -139.686,-65.443 -140,-67 -139.712,-68.4921 -138.925,-69.729 -137.749,-70.5987 -136.297,-70.9892 -136.295,-70.9891 " fill="#004080" fill-opacity="1" ub:z-value="21" ub:fill-on-dark-background="#66c0ff" ub:fill-on-light-background="#004080"/>
    <polygon points="-55.878,-76.9024 -15.878,-85.9024 -15.88,-85.9029 -15.6652,-85.9449 -15.4468,-85.9753 -15,-86 -13.443,-85.6857 -12.1716,-84.8284 -11.3143,-83.557 -11,-82 -11.8905,-79.4835 -14.12,-78.0971 -14.122,-78.0976 -54.122,-69.0976 -54.12,-69.0971 -54.3348,-69.0551 -54.5532,-69.0247 -55,-69 -56.557,-69.3143 -57.8284,-70.1716 -58.6857,-71.443 -59,-73 -58.1095,-75.5165 -55.88,-76.9029 -55.878,-76.9024 " fill="#004080" fill-opacity="1" ub:z-value="22" ub:fill-on-dark-background="#66c0ff" ub:fill-on-light-background="#004080"/>
    <polygon points="-16.6844,-85.628 11.3156,-98.628 11.3144,-98.6285 13,-99 14.557,-98.6857 15.8284,-97.8284 16.6857,-96.557 17,-95 16.3553,-92.8215 14.6856,-91.3715 14.6844,-91.372 -13.3156,-78.372 -13.3144,-78.3715 -15,-78 -16.557,-78.3143 -17.8284,-79.1716 -18.6857,-80.443 -19,-82 -18.3553,-84.1785 -16.6856,-85.6285 -16.6844,-85.628 " fill="#004080" fill-opacity="1" ub:z-value="23" ub:fill-on-dark-background="#66c0ff" ub:fill-on-light-background="#004080"/>
    <polygon points="10.5012,-98.1235 30.5012,-114.123 30.5011,-114.124 33,-115 34.557,-114.686 35.8284,-113.828 36.6857,-112.557 37,-111 36.5926,-109.239 35.4989,-107.876 35.4988,-107.877 15.4988,-91.8765 15.4989,-91.8764 13,-91 11.443,-91.3143 10.1716,-92.1716 9.31434,-93.443 9,-95 9.40739,-96.7608 10.5011,-98.1236 10.5012,-98.1235 " fill="#004080" fill-opacity="1" ub:z-value="24" ub:fill-on-dark-background="#66c0ff" ub:fill-on-light-background="#004080"/>
    <polygon points="30.1716,-113.828 45.1716,-128.828 45.1716,-128.828 46.443,-129.686 48,-130 49.557,-129.686 50.8284,-128.828 51.6857,-127.557 52,-126 51.6857,-124.443 50.8284,-123.172 50.8284,-123.172 35.8284,-108.172 35.8284,-108.172 34.557,-107.314 33,-107 31.443,-107.314 30.1716,-108.172 29.3143,-109.443 29,-111 29.3143,-112.557 30.1716,-113.828 30.1716,-113.828 " fill="#004080" fill-opacity="1" ub:z-value="25" ub:fill-on-dark-background="#66c0ff" ub:fill-on-light-background="#004080"/>
    <polygon points="45.1716,-128.828 61.1716,-144.828 62.443,-145.686 64,-146 65.557,-145.686 66.8284,-144.828 67.6857,-143.557 68,-142 67.6857,-140.443 66.8284,-139.172 50.8284,-123.172 50.8284,-123.172 49.557,-122.314 48,-122 46.443,-122.314 45.1716,-123.172 44.3143,-124.443 44,-126 44.3143,-127.557 45.1716,-128.828 45.1716,-128.828 " fill="#004080" fill-opacity="1" ub:z-value="26" ub:fill-on-dark-background="#66c0ff" ub:fill-on-light-background="#004080"/>
    <polygon points="60.8547,-144.471 82.8547,-172.471 82.8546,-172.471 84.2233,-173.585 86,-174 87.557,-173.686 88.8284,-172.828 89.6857,-171.557 90,-170 89.1454,-167.529 89.1453,-167.529 67.1453,-139.529 67.1454,-139.529 65.7767,-138.415 64,-138 62.443,-138.314 61.1716,-139.172 60.3143,-140.443 60,-142 60.8546,-144.471 60.8547,-144.471 " fill="#004080" fill-opacity="1" ub:z-value="27" ub:fill-on-dark-background="#66c0ff" ub:fill-on-light-background="#004080"/>
    <polygon points="82.4223,-171.789 88.4223,-183.789 88.4216,-183.79 89.8701,-185.386 92,-186 93.557,-185.686 94.8284,-184.828 95.6857,-183.557 96,-182 95.5784,-180.21 95.5777,-180.211 89.5777,-168.211 89.5784,-168.21 88.1299,-166.614 86,-166 84.443,-166.314 83.1716,-167.172 82.3143,-168.443 82,-170 82.4216,-171.79 82.4223,-171.789 " fill="#004080" fill-opacity="1" ub:z-value="28" ub:fill-on-dark-background="#66c0ff" ub:fill-on-light-background="#004080"/>
    <polygon points="88.2053,-183.265 91.2053,-192.265 91.2044,-192.266 92.6386,-194.229 95,-195 96.557,-194.686 97.8284,-193.828 98.6857,-192.557 99,-191 98.7956,-189.734 98.7947,-189.735 95.7947,-180.735 95.7956,-180.734 94.3614,-178.771 92,-178 90.443,-178.314 89.1716,-179.172 88.3143,-180.443 88,-182 88.2044,-183.266 88.2053,-183.265 " fill="#004080" fill-opacity="1" ub:z-value="29" ub:fill-on-dark-background="#66c0ff" ub:fill-on-light-background="#004080"/>
    <polygon points="91.018,-190.621 89.018,-211.621 89.0179,-211.619 89,-212 89.3143,-213.557 90.1716,-214.828 91.443,-215.686 93,-216 94.4733,-215.72 95.6998,-214.952 96.572,-213.803 96.9821,-212.381 96.982,-212.379 98.982,-191.379 98.9821,-191.381 99,-191 98.6857,-189.443 97.8284,-188.172 96.557,-187.314 95,-187 93.5267,-187.28 92.3002,-188.048 91.428,-189.197 91.0179,-190.619 91.018,-190.621 " fill="#004080" fill-opacity="1" ub:z-value="30" ub:fill-on-dark-background="#66c0ff" ub:fill-on-light-background="#004080"/>
    <polygon points="89.3448,-210.375 85.3448,-219.375 85.3442,-219.374 85,-221 85.3143,-222.557 86.1716,-223.828 87.443,-224.686 89,-225 91.2058,-224.337 92.6558,-222.626 92.6552,-222.625 96.6552,-213.625 96.6558,-213.626 97,-212 96.6857,-210.443 95.8284,-209.172 94.557,-208.314 93,-208 90.7942,-208.663 89.3442,-210.374 89.3448,-210.375 " fill="#004080" fill-opacity="1" ub:z-value="31" ub:fill-on-dark-background="#66c0ff" ub:fill-on-light-background="#004080"/>
    <polygon points="85.7451,-218.675 80.7451,-225.675 80.7449,-225.675 80,-228 80.3143,-229.557 81.1716,-230.828 82.443,-231.686 84,-232 85.8587,-231.543 87.2551,-230.325 87.2549,-230.325 92.2549,-223.325 92.2551,-223.325 93,-221 92.6857,-219.443 91.8284,-218.172 90.557,-217.314 89,-217 87.1413,-217.457 85.7449,-218.675 85.7451,-218.675 " fill="#004080" fill-opacity="1" ub:z-value="32" ub:fill-on-dark-background="#66c0ff" ub:fill-on-light-background="#004080"/>
    <polygon points="81.1716,-225.172 75.1716,-231.172 74.3143,-232.443 74,-234 74.3143,-235.557 75.1716,-236.828 76.443,-237.686 78,-238 79.557,-237.686 80.8284,-236.828 86.8284,-230.828 87.6857,-229.557 88,-228 87.6857,-226.443 86.8284,-225.172 85.557,-224.314 84,-224 82.443,-224.314 81.1716,-225.172 " fill="#004080" fill-opacity="1" ub:z-value="33" ub:fill-on-dark-background="#66c0ff" ub:fill-on-light-background="#004080"/>
    <polygon points="75.6,-230.8 67.6,-236.8 67.5998,-236.8 66.4356,-238.183 66,-240 66.3143,-241.557 67.1716,-242.828 68.443,-243.686 70,-244 72.4002,-243.2 72.4,-243.2 80.4,-237.2 80.4002,-237.2 81.5644,-235.817 82,-234 81.6857,-232.443 80.8284,-231.172 79.557,-230.314 78,-230 75.5998,-230.8 75.6,-230.8 " fill="#004080" fill-opacity="1" ub:z-value="34" ub:fill-on-dark-background="#66c0ff" ub:fill-on-light-background="#004080"/>
    <polygon points="68.4243,-236.323 61.4243,-239.323 61.4235,-239.323 59.6772,-240.772 59,-243 59.3143,-244.557 60.1716,-245.828 61.443,-246.686 63,-247 64.5765,-246.677 64.5757,-246.677 71.5757,-243.677 71.5765,-243.677 73.3228,-242.228 74,-240 73.6857,-238.443 72.8284,-237.172 71.557,-236.314 70,-236 68.4235,-236.323 68.4243,-236.323 " fill="#004080" fill-opacity="1" ub:z-value="35" ub:fill-on-dark-background="#66c0ff" ub:fill-on-light-background="#004080"/>
    <polygon points="62.7898,-239.006 43.7898,-240.006 43.7896,-240.005 42.3066,-240.375 41.1029,-241.242 40.2952,-242.489 40,-244 40.3143,-245.557 41.1716,-246.828 42.443,-247.686 44,-248 44.2104,-247.995 44.2102,-247.994 63.2102,-246.994 63.2104,-246.995 64.6934,-246.625 65.8971,-245.758 66.7048,-244.511 67,-243 66.6857,-241.443 65.8284,-240.172 64.557,-239.314 63,-239 62.7896,-239.005 62.7898,-239.006 " fill="#004080" fill-opacity="1" ub:z-value="36" ub:fill-on-dark-background="#66c0ff" ub:fill-on-light-background="#004080"/>
    <polygon points="44.3068,-240.012 31.3068,-239.012 31.3081,-239.012 31,-239 29.443,-239.314 28.1716,-240.172 27.3143,-241.443 27,-243 27.2865,-244.49 28.0717,-245.725 29.2441,-246.595 30.6919,-246.988 30.6932,-246.988 43.6932,-247.988 43.6919,-247.988 44,-248 45.557,-247.686 46.8284,-246.828 47.6857,-245.557 48,-244 47.7135,-242.51 46.9283,-241.275 45.7559,-240.405 44.3081,-240.012 44.3068,-240.012 " fill="#004080" fill-opacity="1" ub:z-value="37" ub:fill-on-dark-background="#66c0ff" ub:fill-on-light-background="#004080"/>
    <polygon points="32.4045,-239.255 16.4045,-233.255 16.4061,-233.254 15,-233 13.443,-233.314 12.1716,-234.172 11.3143,-235.443 11,-237 11.7288,-239.303 13.5939,-240.746 13.5955,-240.745 29.5955,-246.745 29.5939,-246.746 31,-247 32.557,-246.686 33.8284,-245.828 34.6857,-244.557 35,-243 34.2712,-240.697 32.4061,-239.254 32.4045,-239.255 " fill="#004080" fill-opacity="1" ub:z-value="38" ub:fill-on-dark-background="#66c0ff" ub:fill-on-light-background="#004080"/>
    <polygon points="17.4875,-233.868 -16.5125,-206.868 -16.5123,-206.867 -19,-206 -20.557,-206.314 -21.8284,-207.172 -22.6857,-208.443 -23,-210 -22.5894,-211.767 -21.4877,-213.133 -21.4875,-213.132 12.5125,-240.132 12.5123,-240.133 15,-241 16.557,-240.686 17.8284,-239.828 18.6857,-238.557 19,-237 18.5894,-235.233 17.4877,-233.867 17.4875,-233.868 " fill="#004080" fill-opacity="1" ub:z-value="39" ub:fill-on-dark-background="#66c0ff" ub:fill-on-light-background="#004080"/>
    <polygon points="-16.1716,-207.172 -34.1716,-189.172 -34.1716,-189.172 -35.443,-188.314 -37,-188 -38.557,-188.314 -39.8284,-189.172 -40.6857,-190.443 -41,-192 -40.6857,-193.557 -39.8284,-194.828 -39.8284,-194.828 -21.8284,-212.828 -21.8284,-212.828 -20.557,-213.686 -19,-214 -17.443,-213.686 -16.1716,-212.828 -15.3143,-211.557 -15,-210 -15.3143,-208.443 -16.1716,-207.172 -16.1716,-207.172 " fill="#004080" fill-opacity="1" ub:z-value="40" ub:fill-on-dark-background="#66c0ff" ub:fill-on-light-background="#004080"/>
    <polygon points="-34.2971,-189.051 -58.2971,-167.051 -58.2971,-167.051 -59.5247,-166.281 -61,-166 -62.557,-166.314 -63.8284,-167.172 -64.6857,-168.443 -65,-170 -64.6504,-171.638 -63.7029,-172.949 -63.7029,-172.949 -39.7029,-194.949 -39.7029,-194.949 -38.4753,-195.719 -37,-196 -35.443,-195.686 -34.1716,-194.828 -33.3143,-193.557 -33,-192 -33.3496,-190.362 -34.2971,-189.051 -34.2971,-189.051 " fill="#004080" fill-opacity="1" ub:z-value="41" ub:fill-on-dark-background="#66c0ff" ub:fill-on-light-background="#004080"/>
    <polygon points="-58.0297,-167.321 -104.03,-116.321 -104.03,-116.321 -105.347,-115.356 -107,-115 -108.557,-115.314 -109.828,-116.172 -110.686,-117.443 -111,-119 -110.725,-120.46 -109.97,-121.679 -109.97,-121.679 -63.9703,-172.679 -63.9703,-172.679 -62.6526,-173.644 -61,-174 -59.443,-173.686 -58.1716,-172.828 -57.3143,-171.557 -57,-170 -57.2748,-168.54 -58.0297,-167.321 -58.0297,-167.321 " fill="#004080" fill-opacity="1" ub:z-value="42" ub:fill-on-dark-background="#66c0ff" ub:fill-on-light-background="#004080"/>
    <polygon points="-104.046,-116.303 -125.046,-93.3029 -125.046,-93.3029 -126.359,-92.3512 -128,-92 -129.557,-92.3143 -130.828,-93.1716 -131.686,-94.443 -132,-96 -131.721,-97.4716 -130.954,-98.6971 -130.954,-98.6971 -109.954,-121.697 -109.954,-121.697 -108.641,-122.649 -107,-123 -105.443,-122.686 -104.172,-121.828 -103.314,-120.557 -103,-119 -103.279,-117.528 -104.046,-116.303 -104.046,-116.303 " fill="#004080" fill-opacity="1" ub:z-value="43" ub:fill-on-dark-background="#66c0ff" ub:fill-on-light-background="#004080"/>
    <polygon points="-124.692,-93.7508 -141.692,-68.7508 -141.692,-68.7505 -143.1,-67.479 -145,-67 -146.557,-67.3143 -147.828,-68.1716 -148.686,-69.443 -149,-71 -148.308,-73.2495 -148.308,-73.2492 -131.308,-98.2492 -131.308,-98.2495 -129.9,-99.521 -128,-100 -126.443,-99.6857 -125.172,-98.8284 -124.314,-97.557 -124,-96 -124.692,-93.7505 -124.692,-93.7508 " fill="#004080" fill-opacity="1" ub:z-value="44" ub:fill-on-dark-background="#66c0ff" ub:fill-on-light-background="#004080"/>
    <polygon points="-141.613,-68.8713 -163.613,-33.8713 -163.613,-33.8709 -165.037,-32.5139 -167,-32 -168.557,-32.3143 -169.828,-33.1716 -170.686,-34.443 -171,-36 -170.387,-38.1291 -170.387,-38.1287 -148.387,-73.1287 -148.387,-73.1291 -146.963,-74.4861 -145,-75 -143.443,-74.6857 -142.172,-73.8284 -141.314,-72.557 -141,-71 -141.613,-68.8709 -141.613,-68.8713 " fill="#004080" fill-opacity="1" ub:z-value="45" ub:fill-on-dark-background="#66c0ff" ub:fill-on-light-background="#004080"/>
    <polygon points="-163.301,-34.477 -170.301,-17.477 -170.301,-17.4761 -171.749,-15.693 -174,-15 -175.557,-15.3143 -176.828,-16.1716 -177.686,-17.443 -178,-19 -177.699,-20.5239 -177.699,-20.523 -170.699,-37.523 -170.699,-37.5239 -169.251,-39.307 -167,-40 -165.443,-39.6857 -164.172,-38.8284 -163.314,-37.557 -163,-36 -163.301,-34.4761 -163.301,-34.477 " fill="#004080" fill-opacity="1" ub:z-value="46" ub:fill-on-dark-background="#66c0ff" ub:fill-on-light-background="#004080"/>
    <polygon points="-170.047,-18.3918 -172.047,-5.39177 -172.046,-5.39118 -173.383,-2.97527 -174.579,-2.25975 -176,-2 -177.557,-2.31434 -178.828,-3.17157 -179.686,-4.44302 -180,-6 -179.988,-6.30808 -179.954,-6.60882 -179.953,-6.60823 -177.953,-19.6082 -177.954,-19.6088 -176.617,-22.0247 -175.421,-22.7402 -174,-23 -172.443,-22.6857 -171.172,-21.8284 -170.314,-20.557 -170,-19 -170.012,-18.6919 -170.046,-18.3912 -170.047,-18.3918 " fill="#004080" fill-opacity="1" ub:z-value="47" ub:fill-on-dark-background="#66c0ff" ub:fill-on-light-background="#004080"/>
    <polygon points="-172.003,-5.85195 -173.003,21.148 -173.003,21.1481 -173.357,22.6531 -174.221,23.8769 -175.475,24.6992 -177,25 -178.557,24.6857 -179.828,23.8284 -180.686,22.557 -181,21 -180.997,20.8519 -180.997,20.852 -179.997,-6.14805 -179.997,-6.14811 -179.643,-7.65315 -178.779,-8.87688 -177.525,-9.6992 -176,-10 -174.443,-9.68566 -173.172,-8.82843 -172.314,-7.55698 -172,-6 -172.003,-5.85189 -172.003,-5.85195 " fill="#004080" fill-opacity="1" ub:z-value="48" ub:fill-on-dark-background="#66c0ff" ub:fill-on-light-background="#004080"/>
    <polygon points="-173,21 -173,32 -173.314,33.557 -174.172,34.8284 -175.443,35.6857 -177,36 -178.557,35.6857 -179.828,34.8284 -180.686,33.557 -181,32 -181,21 -180.686,19.443 -179.828,18.1716 -178.557,17.3143 -177,17 -175.443,17.3143 -174.172,18.1716 -173.314,19.443 -173,21 " fill="#004080" fill-opacity="1" ub:z-value="49" ub:fill-on-dark-background="#66c0ff" ub:fill-on-light-background="#004080"/>
    <polygon points="-173,32 -173,41 -173.314,42.557 -174.172,43.8284 -175.443,44.6857 -177,45 -178.557,44.6857 -179.828,43.8284 -180.686,42.557 -181,41 -181,32 -180.686,30.443 -179.828,29.1716 -178.557,28.3143 -177,28 -175.443,28.3143 -174.172,29.1716 -173.314,30.443 -173,32 " fill="#004080" fill-opacity="1" ub:z-value="50" ub:fill-on-dark-background="#66c0ff" ub:fill-on-light-background="#004080"/>
    <polygon points="-173.141,42.0525 -176.141,53.0525 -176.14,53.0534 -177.552,55.1637 -180,56 -181.557,55.6857 -182.828,54.8284 -183.686,53.557 -184,52 -183.86,50.9466 -183.859,50.9475 -180.859,39.9475 -180.86,39.9466 -179.448,37.8363 -177,37 -175.443,37.3143 -174.172,38.1716 -173.314,39.443 -173,41 -173.14,42.0534 -173.141,42.0525 " fill="#004080" fill-opacity="1" ub:z-value="51" ub:fill-on-dark-background="#66c0ff" ub:fill-on-light-background="#004080"/>
    <polygon points="-176.422,53.7889 -178.422,57.7889 -178.422,57.7895 -179.87,59.3863 -182,60 -183.557,59.6857 -184.828,58.8284 -185.686,57.557 -186,56 -185.578,54.2105 -185.578,54.2111 -183.578,50.2111 -183.578,50.2105 -182.13,48.6137 -180,48 -178.443,48.3143 -177.172,49.1716 -176.314,50.443 -176,52 -176.422,53.7895 -176.422,53.7889 " fill="#004080" fill-opacity="1" ub:z-value="52" ub:fill-on-dark-background="#66c0ff" ub:fill-on-light-background="#004080"/>
    <polygon points="-179.172,58.8284 -180.172,59.8284 -181.443,60.6857 -183,61 -184.557,60.6857 -185.828,59.8284 -186.686,58.557 -187,57 -186.686,55.443 -185.828,54.1716 -184.828,53.1716 -183.557,52.3143 -182,52 -180.443,52.3143 -179.172,53.1716 -178.314,54.443 -178,56 -178.314,57.557 -179.172,58.8284 " fill="#004080" fill-opacity="1" ub:z-value="53" ub:fill-on-dark-background="#66c0ff" ub:fill-on-light-background="#004080"/>
    <polygon points="-180.172,59.8284 -181.172,60.8284 -182.443,61.6857 -184,62 -185.557,61.6857 -186.828,60.8284 -187.686,59.557 -188,58 -187.686,56.443 -186.828,55.1716 -185.828,54.1716 -184.557,53.3143 -183,53 -181.443,53.3143 -180.172,54.1716 -179.314,55.443 -179,57 -179.314,58.557 -180.172,59.8284 " fill="#004080" fill-opacity="1" ub:z-value="54" ub:fill-on-dark-background="#66c0ff" ub:fill-on-light-background="#004080"/>
    <polygon points="-184,62 -186,62 -187.557,61.6857 -188.828,60.8284 -189.686,59.557 -190,58 -189.686,56.443 -188.828,55.1716 -187.557,54.3143 -186,54 -184,54 -182.443,54.3143 -181.172,55.1716 -180.314,56.443 -180,58 -180.314,59.557 -181.172,60.8284 -182.443,61.6857 -184,62 " fill="#004080" fill-opacity="1" ub:z-value="55" ub:fill-on-dark-background="#66c0ff" ub:fill-on-light-background="#004080"/>
    <polygon points="-186,62 -188,62 -189.557,61.6857 -190.828,60.8284 -191.686,59.557 -192,58 -191.686,56.443 -190.828,55.1716 -189.557,54.3143 -188,54 -186,54 -184.443,54.3143 -183.172,55.1716 -182.314,56.443 -182,58 -182.314,59.557 -183.172,60.8284 -184.443,61.6857 -186,62 " fill="#004080" fill-opacity="1" ub:z-value="56" ub:fill-on-dark-background="#66c0ff" ub:fill-on-light-background="#004080"/>
    <polygon points="-188,62 -190,62 -191.557,61.6857 -192.828,60.8284 -193.686,59.557 -194,58 -193.686,56.443 -192.828,55.1716 -191.557,54.3143 -190,54 -188,54 -186.443,54.3143 -185.172,55.1716 -184.314,56.443 -184,58 -184.314,59.557 -185.172,60.8284 -186.443,61.6857 -188,62 " fill="#004080" fill-opacity="1" ub:z-value="57" ub:fill-on-dark-background="#66c0ff" ub:fill-on-light-background="#004080"/>
    <polygon points="-331,34 -329.443,34.3143 -328.172,35.1716 -327.314,36.443 -327,38 -327.314,39.557 -328.172,40.8284 -329.443,41.6857 -331,42 -332.557,41.6857 -333.828,40.8284 -334.686,39.557 -335,38 -334.686,36.443 -333.828,35.1716 -332.557,34.3143 -331,34 " fill="#004080" fill-opacity="1" ub:z-value="58" ub:fill-on-dark-background="#66c0ff" ub:fill-on-light-background="#004080"/>
    <polygon points="-329.211,34.4223 -327.211,35.4223 -327.21,35.4216 -325.614,36.8701 -325,39 -325.314,40.557 -326.172,41.8284 -327.443,42.6857 -329,43 -330.79,42.5784 -330.789,42.5777 -332.789,41.5777 -332.79,41.5784 -334.386,40.1299 -335,38 -334.686,36.443 -333.828,35.1716 -332.557,34.3143 -331,34 -329.21,34.4216 -329.211,34.4223 " fill="#004080" fill-opacity="1" ub:z-value="59" ub:fill-on-dark-background="#66c0ff" ub:fill-on-light-background="#004080"/>
    <polygon points="-326.172,36.1716 -325.172,37.1716 -325.172,37.1716 -324.314,38.443 -324,40 -324.314,41.557 -325.172,42.8284 -326.443,43.6857 -328,44 -329.557,43.6857 -330.828,42.8284 -330.828,42.8284 -331.828,41.8284 -331.828,41.8284 -332.686,40.557 -333,39 -332.686,37.443 -331.828,36.1716 -330.557,35.3143 -329,35 -327.443,35.3143 -326.172,36.1716 -326.172,36.1716 " fill="#004080" fill-opacity="1" ub:z-value="60" ub:fill-on-dark-background="#66c0ff" ub:fill-on-light-background="#004080"/>
    <polygon points="-327.418,36.0426 -293.418,41.0426 -293.417,41.0421 -290.984,42.373 -290.262,43.573 -290,45 -290.314,46.557 -291.172,47.8284 -292.443,48.6857 -294,49 -294.295,48.9893 -294.583,48.9579 -294.582,48.9574 -328.582,43.9574 -328.583,43.9579 -331.016,42.627 -331.738,41.427 -332,40 -331.686,38.443 -330.828,37.1716 -329.557,36.3143 -328,36 -327.705,36.0107 -327.417,36.0421 -327.418,36.0426 " fill="#004080" fill-opacity="1" ub:z-value="61" ub:fill-on-dark-background="#66c0ff" ub:fill-on-light-background="#004080"/>
    <polygon points="-293.638,41.0164 -260.638,44.0164 -260.638,44.0162 -259.209,44.4228 -258.054,45.2945 -257.282,46.5231 -257,48 -257.314,49.557 -258.172,50.8284 -259.443,51.6857 -261,52 -261.362,51.9838 -261.362,51.9836 -294.362,48.9836 -294.362,48.9838 -295.791,48.5772 -296.946,47.7055 -297.718,46.4769 -298,45 -297.686,43.443 -296.828,42.1716 -295.557,41.3143 -294,41 -293.638,41.0162 -293.638,41.0164 " fill="#004080" fill-opacity="1" ub:z-value="62" ub:fill-on-dark-background="#66c0ff" ub:fill-on-light-background="#004080"/>
    <polygon points="-260.805,44.0048 -219.805,46.0048 -219.805,46.0047 -218.317,46.3706 -217.108,47.2368 -216.297,48.4858 -216,50 -216.314,51.557 -217.172,52.8284 -218.443,53.6857 -220,54 -220.195,53.9953 -220.195,53.9952 -261.195,51.9952 -261.195,51.9953 -262.683,51.6294 -263.892,50.7632 -264.703,49.5142 -265,48 -264.686,46.443 -263.828,45.1716 -262.557,44.3143 -261,44 -260.805,44.0047 -260.805,44.0048 " fill="#004080" fill-opacity="1" ub:z-value="63" ub:fill-on-dark-background="#66c0ff" ub:fill-on-light-background="#004080"/>
    <polygon points="-219.923,46.0007 -115.923,48.0007 -115.923,48.0007 -114.393,48.336 -113.146,49.1971 -112.307,50.4598 -112,52 -112.314,53.557 -113.172,54.8284 -114.443,55.6857 -116,56 -116.077,55.9993 -116.077,55.9993 -220.077,53.9993 -220.077,53.9993 -221.607,53.664 -222.854,52.8029 -223.693,51.5402 -224,50 -223.686,48.443 -222.828,47.1716 -221.557,46.3143 -220,46 -219.923,46.0007 -219.923,46.0007 " fill="#004080" fill-opacity="1" ub:z-value="64" ub:fill-on-dark-background="#66c0ff" ub:fill-on-light-background="#004080"/>
    <polygon points="-116,48 -60,48 -58.443,48.3143 -57.1716,49.1716 -56.3143,50.443 -56,52 -56.3143,53.557 -57.1716,54.8284 -58.443,55.6857 -60,56 -116,56 -117.557,55.6857 -118.828,54.8284 -119.686,53.557 -120,52 -119.686,50.443 -118.828,49.1716 -117.557,48.3143 -116,48 " fill="#004080" fill-opacity="1" ub:z-value="65" ub:fill-on-dark-background="#66c0ff" ub:fill-on-light-background="#004080"/>
    <polygon points="-60,48 -2.44929e-16,48 0,48 1.55698,48.3143 2.82843,49.1716 3.68566,50.443 4,52 3.68566,53.557 2.82843,54.8284 1.55698,55.6857 0,56 2.44929e-16,56 -60,56 -61.557,55.6857 -62.8284,54.8284 -63.6857,53.557 -64,52 -63.6857,50.443 -62.8284,49.1716 -61.557,48.3143 -60,48 " fill="#004080" fill-opacity="1" ub:z-value="66" ub:fill-on-dark-background="#66c0ff" ub:fill-on-light-background="#004080"/>
    <polygon points="-2.44929e-16,48 113,48 114.557,48.3143 115.828,49.1716 116.686,50.443 117,52 116.686,53.557 115.828,54.8284 114.557,55.6857 113,56 2.44929e-16,56 0,56 -1.55698,55.6857 -2.82843,54.8284 -3.68566,53.557 -4,52 -3.68566,50.443 -2.82843,49.1716 -1.55698,48.3143 0,48 -2.44929e-16,48 " fill="#004080" fill-opacity="1" ub:z-value="67" ub:fill-on-dark-background="#66c0ff" ub:fill-on-light-background="#004080"/>
    <polygon points="113,48 162,48 163.557,48.3143 164.828,49.1716 165.686,50.443 166,52 165.686,53.557 164.828,54.8284 163.557,55.6857 162,56 113,56 111.443,55.6857 110.172,54.8284 109.314,53.557 109,52 109.314,50.443 110.172,49.1716 111.443,48.3143 113,48 " fill="#004080" fill-opacity="1" ub:z-value="68" ub:fill-on-dark-background="#66c0ff" ub:fill-on-light-background="#004080"/>
    <polygon points="162.098,48.0012 203.098,49.0012 203.098,49.0012 204.62,49.3419 205.86,50.204 206.695,51.4643 207,53 206.686,54.557 205.828,55.8284 204.557,56.6857 203,57 202.902,56.9988 202.902,56.9988 161.902,55.9988 161.902,55.9988 160.38,55.6581 159.14,54.796 158.305,53.5357 158,52 158.314,50.443 159.172,49.1716 160.443,48.3143 162,48 162.098,48.0012 162.098,48.0012 " fill="#004080" fill-opacity="1" ub:z-value="69" ub:fill-on-dark-background="#66c0ff" ub:fill-on-light-background="#004080"/>
    <polygon points="203.075,49.0007 256.075,50.0007 256.075,50.0007 257.606,50.3356 258.853,51.1966 259.693,52.4595 260,54 259.686,55.557 258.828,56.8284 257.557,57.6857 256,58 255.925,57.9993 255.925,57.9993 202.925,56.9993 202.925,56.9993 201.394,56.6644 200.147,55.8034 199.307,54.5405 199,53 199.314,51.443 200.172,50.1716 201.443,49.3143 203,49 203.075,49.0007 203.075,49.0007 " fill="#004080" fill-opacity="1" ub:z-value="70" ub:fill-on-dark-background="#66c0ff" ub:fill-on-light-background="#004080"/>
    <polygon points="256.332,50.0138 268.332,51.0138 268.332,51.0136 269.772,51.4132 270.937,52.2841 271.716,53.5164 272,55 271.686,56.557 270.828,57.8284 269.557,58.6857 268,59 267.668,58.9864 267.668,58.9862 255.668,57.9862 255.668,57.9864 254.228,57.5868 253.063,56.7159 252.284,55.4836 252,54 252.314,52.443 253.172,51.1716 254.443,50.3143 256,50 256.332,50.0136 256.332,50.0138 " fill="#004080" fill-opacity="1" ub:z-value="71" ub:fill-on-dark-background="#66c0ff" ub:fill-on-light-background="#004080"/>
    <polygon points="268.784,51.0777 273.784,52.0777 273.785,52.077 276.08,53.4481 277,56 276.686,57.557 275.828,58.8284 274.557,59.6857 273,60 272.601,59.9804 272.215,59.923 272.216,59.9223 267.216,58.9223 267.215,58.923 264.92,57.5519 264,55 264.314,53.443 265.172,52.1716 266.443,51.3143 268,51 268.399,51.0196 268.785,51.077 268.784,51.0777 " fill="#004080" fill-opacity="1" ub:z-value="72" ub:fill-on-dark-background="#66c0ff" ub:fill-on-light-background="#004080"/>
    <polygon points="273,52 276,52 277.557,52.3143 278.828,53.1716 279.686,54.443 280,56 279.686,57.557 278.828,58.8284 277.557,59.6857 276,60 273,60 271.443,59.6857 270.172,58.8284 269.314,57.557 269,56 269.314,54.443 270.172,53.1716 271.443,52.3143 273,52 " fill="#004080" fill-opacity="1" ub:z-value="73" ub:fill-on-dark-background="#66c0ff" ub:fill-on-light-background="#004080"/>
    <polygon points="272,56 272,55 272.314,53.443 273.172,52.1716 274.443,51.3143 276,51 277.557,51.3143 278.828,52.1716 279.686,53.443 280,55 280,56 279.686,57.557 278.828,58.8284 277.557,59.6857 276,60 274.443,59.6857 273.172,58.8284 272.314,57.557 272,56 " fill="#004080" fill-opacity="1" ub:z-value="74" ub:fill-on-dark-background="#66c0ff" ub:fill-on-light-background="#004080"/>
    <polygon points="300,-49 301.557,-48.6857 302.828,-47.8284 303.686,-46.557 304,-45 303.686,-43.443 302.828,-42.1716 301.557,-41.3143 300,-41 298.443,-41.3143 297.172,-42.1716 296.314,-43.443 296,-45 296.314,-46.557 297.172,-47.8284 298.443,-48.6857 300,-49 " fill="#004080" fill-opacity="1" ub:z-value="75" ub:fill-on-dark-background="#66c0ff" ub:fill-on-light-background="#004080"/>
    <polygon points="303.881,-45.9701 304.881,-41.9701 304.881,-41.9721 305,-41 304.686,-39.443 303.828,-38.1716 302.557,-37.3143 301,-37 298.519,-37.8619 297.119,-40.0279 297.119,-40.0299 296.119,-44.0299 296.119,-44.0279 296,-45 296.314,-46.557 297.172,-47.8284 298.443,-48.6857 300,-49 302.481,-48.1381 303.881,-45.9721 303.881,-45.9701 " fill="#004080" fill-opacity="1" ub:z-value="76" ub:fill-on-dark-background="#66c0ff" ub:fill-on-light-background="#004080"/>
    <polygon points="304.982,-41.3792 306.982,-20.3792 306.982,-20.3807 307,-20 306.686,-18.443 305.828,-17.1716 304.557,-16.3143 303,-16 301.527,-16.2801 300.3,-17.0484 299.428,-18.1974 299.018,-19.6193 299.018,-19.6208 297.018,-40.6208 297.018,-40.6193 297,-41 297.314,-42.557 298.172,-43.8284 299.443,-44.6857 301,-45 302.473,-44.7199 303.7,-43.9516 304.572,-42.8026 304.982,-41.3807 304.982,-41.3792 " fill="#004080" fill-opacity="1" ub:z-value="77" ub:fill-on-dark-background="#66c0ff" ub:fill-on-light-background="#004080"/>
    <polygon points="307,-20 307,-5 306.686,-3.44302 305.828,-2.17157 304.557,-1.31434 303,-1 301.443,-1.31434 300.172,-2.17157 299.314,-3.44302 299,-5 299,-20 299.314,-21.557 300.172,-22.8284 301.443,-23.6857 303,-24 304.557,-23.6857 305.828,-22.8284 306.686,-21.557 307,-20 " fill="#004080" fill-opacity="1" ub:z-value="78" ub:fill-on-dark-background="#66c0ff" ub:fill-on-light-background="#004080"/>
    <polygon points="307,-5 307,10 306.686,11.557 305.828,12.8284 304.557,13.6857 303,14 301.443,13.6857 300.172,12.8284 299.314,11.557 299,10 299,-5 299.314,-6.55698 300.172,-7.82843 301.443,-8.68566 303,-9 304.557,-8.68566 305.828,-7.82843 306.686,-6.55698 307,-5 " fill="#004080" fill-opacity="1" ub:z-value="79" ub:fill-on-dark-background="#66c0ff" ub:fill-on-light-background="#004080"/>
    <polygon points="306.973,10.4674 302.973,44.4674 302.973,44.4678 302.542,45.859 301.668,46.9799 300.453,47.7278 299,48 297.443,47.6857 296.172,46.8284 295.314,45.557 295,44 295.027,43.5322 295.027,43.5326 299.027,9.53264 299.027,9.53221 299.458,8.14104 300.332,7.0201 301.547,6.27215 303,6 304.557,6.31434 305.828,7.17157 306.686,8.44302 307,10 306.973,10.4678 306.973,10.4674 " fill="#004080" fill-opacity="1" ub:z-value="80" ub:fill-on-dark-background="#66c0ff" ub:fill-on-light-background="#004080"/>
    <polygon points="302.922,44.7845 299.922,59.7845 299.923,59.7852 298.552,62.0803 296,63 294.443,62.6857 293.172,61.8284 292.314,60.557 292,59 292.02,58.6013 292.077,58.2148 292.078,58.2155 295.078,43.2155 295.077,43.2148 296.448,40.9197 299,40 300.557,40.3143 301.828,41.1716 302.686,42.443 303,44 302.98,44.3987 302.923,44.7852 302.922,44.7845 " fill="#004080" fill-opacity="1" ub:z-value="81" ub:fill-on-dark-background="#66c0ff" ub:fill-on-light-background="#004080"/>
    <polygon points="299.991,59.2661 298.991,74.2661 298.991,74.2663 298.608,75.7295 297.739,76.9152 296.498,77.7099 295,78 293.443,77.6857 292.172,76.8284 291.314,75.557 291,74 291.009,73.7337 291.009,73.7339 292.009,58.7339 292.009,58.7337 292.392,57.2705 293.261,56.0848 294.502,55.2901 296,55 297.557,55.3143 298.828,56.1716 299.686,57.443 300,59 299.991,59.2663 299.991,59.2661 " fill="#004080" fill-opacity="1" ub:z-value="82" ub:fill-on-dark-background="#66c0ff" ub:fill-on-light-background="#004080"/>
    <polygon points="298.984,74.3621 296.984,96.3621 296.984,96.3624 296.577,97.7914 295.705,98.9462 294.477,99.7185 293,100 291.443,99.6857 290.172,98.8284 289.314,97.557 289,96 289.016,95.6376 289.016,95.6379 291.016,73.6379 291.016,73.6376 291.423,72.2086 292.295,71.0538 293.523,70.2815 295,70 296.557,70.3143 297.828,71.1716 298.686,72.443 299,74 298.984,74.3624 298.984,74.3621 " fill="#004080" fill-opacity="1" ub:z-value="83" ub:fill-on-dark-background="#66c0ff" ub:fill-on-light-background="#004080"/>
    <polygon points="297,96 297,104 296.686,105.557 295.828,106.828 294.557,107.686 293,108 291.443,107.686 290.172,106.828 289.314,105.557 289,104 289,96 289.314,94.443 290.172,93.1716 291.443,92.3143 293,92 294.557,92.3143 295.828,93.1716 296.686,94.443 297,96 " fill="#004080" fill-opacity="1" ub:z-value="84" ub:fill-on-dark-background="#66c0ff" ub:fill-on-light-background="#004080"/>
    <polygon points="297,104 297,114 296.686,115.557 295.828,116.828 294.557,117.686 293,118 291.443,117.686 290.172,116.828 289.314,115.557 289,114 289,104 289.314,102.443 290.172,101.172 291.443,100.314 293,100 294.557,100.314 295.828,101.172 296.686,102.443 297,104 " fill="#004080" fill-opacity="1" ub:z-value="85" ub:fill-on-dark-background="#66c0ff" ub:fill-on-light-background="#004080"/>
    <polygon points="297,114 297,117 296.686,118.557 295.828,119.828 294.557,120.686 293,121 291.443,120.686 290.172,119.828 289.314,118.557 289,117 289,114 289.314,112.443 290.172,111.172 291.443,110.314 293,110 294.557,110.314 295.828,111.172 296.686,112.443 297,114 " fill="#004080" fill-opacity="1" ub:z-value="86" ub:fill-on-dark-background="#66c0ff" ub:fill-on-light-background="#004080"/>
    <polygon points="297,117 297,119 296.686,120.557 295.828,121.828 294.557,122.686 293,123 291.443,122.686 290.172,121.828 289.314,120.557 289,119 289,117 289.314,115.443 290.172,114.172 291.443,113.314 293,113 294.557,113.314 295.828,114.172 296.686,115.443 297,117 " fill="#004080" fill-opacity="1" ub:z-value="87" ub:fill-on-dark-background="#66c0ff" ub:fill-on-light-background="#004080"/>
    <polygon points="297,119 297,121 296.686,122.557 295.828,123.828 294.557,124.686 293,125 291.443,124.686 290.172,123.828 289.314,122.557 289,121 289,119 289.314,117.443 290.172,116.172 291.443,115.314 293,115 294.557,115.314 295.828,116.172 296.686,117.443 297,119 " fill="#004080" fill-opacity="1" ub:z-value="88" ub:fill-on-dark-background="#66c0ff" ub:fill-on-light-background="#004080"/>
    <polygon points="297,121 297,122 296.686,123.557 295.828,124.828 294.557,125.686 293,126 291.443,125.686 290.172,124.828 289.314,123.557 289,122 289,121 289.314,119.443 290.172,118.172 291.443,117.314 293,117 294.557,117.314 295.828,118.172 296.686,119.443 297,121 " fill="#004080" fill-opacity="1" ub:z-value="89" ub:fill-on-dark-background="#66c0ff" ub:fill-on-light-background="#004080"/>
    <polygon points="297,122 297,123 296.686,124.557 295.828,125.828 294.557,126.686 293,127 291.443,126.686 290.172,125.828 289.314,124.557 289,123 289,122 289.314,120.443 290.172,119.172 291.443,118.314 293,118 294.557,118.314 295.828,119.172 296.686,120.443 297,122 " fill="#004080" fill-opacity="1" ub:z-value="90" ub:fill-on-dark-background="#66c0ff" ub:fill-on-light-background="#004080"/>
    <polygon points="293,119 294,119 295.557,119.314 296.828,120.172 297.686,121.443 298,123 297.686,124.557 296.828,125.828 295.557,126.686 294,127 293,127 291.443,126.686 290.172,125.828 289.314,124.557 289,123 289.314,121.443 290.172,120.172 291.443,119.314 293,119 " fill="#004080" fill-opacity="1" ub:z-value="91" ub:fill-on-dark-background="#66c0ff" ub:fill-on-light-background="#004080"/>
</svg>
